<?xml version="1.0" encoding="UTF-8" standalone="no"?>
<svg
   height="48"
   width="48"
   version="1.1"
   id="svg6352"
   sodipodi:docname="explore_FILL1_wght400_GRAD0_opsz48-mid.svg"
   inkscape:version="1.2 (dc2aedaf03, 2022-05-15)"
   xmlns:inkscape="http://www.inkscape.org/namespaces/inkscape"
   xmlns:sodipodi="http://sodipodi.sourceforge.net/DTD/sodipodi-0.dtd"
   xmlns="http://www.w3.org/2000/svg"
   xmlns:svg="http://www.w3.org/2000/svg">
  <defs
     id="defs6356" />
  <sodipodi:namedview
     id="namedview6354"
     pagecolor="#505050"
     bordercolor="#eeeeee"
     borderopacity="1"
     inkscape:showpageshadow="0"
     inkscape:pageopacity="0"
     inkscape:pagecheckerboard="0"
     inkscape:deskcolor="#505050"
     showgrid="false"
     inkscape:zoom="16.833333"
     inkscape:cx="24.029703"
     inkscape:cy="24"
     inkscape:window-width="1920"
     inkscape:window-height="1017"
     inkscape:window-x="-8"
     inkscape:window-y="-8"
     inkscape:window-maximized="1"
     inkscape:current-layer="svg6352" />
  <path
     d="M24 44Q19.9 44 16.25 42.425Q12.6 40.85 9.875 38.125Q7.15 35.4 5.575 31.75Q4 28.1 4 24Q4 19.9 5.575 16.25Q7.15 12.6 9.875 9.875Q12.6 7.15 16.25 5.575Q19.9 4 24 4Q28.1 4 31.75 5.575Q35.4 7.15 38.125 9.875Q40.85 12.6 42.425 16.25Q44 19.9 44 24Q44 28.1 42.425 31.75Q40.85 35.4 38.125 38.125Q35.4 40.85 31.75 42.425Q28.1 44 24 44ZM13.15 34.85 27.65 27.7 34.8 13.2 20.3 20.35ZM24 26Q23.15 26 22.575 25.425Q22 24.85 22 24Q22 23.15 22.575 22.575Q23.15 22 24 22Q24.85 22 25.425 22.575Q26 23.15 26 24Q26 24.85 25.425 25.425Q24.85 26 24 26Z"
     id="path6350"
     style="fill:#a2b7cd;fill-opacity:1" />
</svg>
