<?xml version="1.0" encoding="UTF-8" standalone="no"?>
<svg
   height="48"
   width="48"
   version="1.1"
   id="svg7824"
   sodipodi:docname="groups_FILL1_wght400_GRAD0_opsz48-mid_grey.svg"
   inkscape:version="1.2 (dc2aedaf03, 2022-05-15)"
   xmlns:inkscape="http://www.inkscape.org/namespaces/inkscape"
   xmlns:sodipodi="http://sodipodi.sourceforge.net/DTD/sodipodi-0.dtd"
   xmlns="http://www.w3.org/2000/svg"
   xmlns:svg="http://www.w3.org/2000/svg">
  <defs
     id="defs7828" />
  <sodipodi:namedview
     id="namedview7826"
     pagecolor="#505050"
     bordercolor="#eeeeee"
     borderopacity="1"
     inkscape:showpageshadow="0"
     inkscape:pageopacity="0"
     inkscape:pagecheckerboard="0"
     inkscape:deskcolor="#505050"
     showgrid="false"
     inkscape:zoom="17.3125"
     inkscape:cx="14.758123"
     inkscape:cy="23.971119"
     inkscape:window-width="1920"
     inkscape:window-height="1017"
     inkscape:window-x="-8"
     inkscape:window-y="-8"
     inkscape:window-maximized="1"
     inkscape:current-layer="svg7824" />
  <path
     d="M0 36V33.35Q0 31.4 2.075 30.2Q4.15 29 7.5 29Q8.1 29 8.675 29.025Q9.25 29.05 9.8 29.15Q9.4 30 9.2 30.9Q9 31.8 9 32.8V36ZM12 36V32.8Q12 29.55 15.325 27.525Q18.65 25.5 24 25.5Q29.4 25.5 32.7 27.525Q36 29.55 36 32.8V36ZM39 36V32.8Q39 31.8 38.8 30.9Q38.6 30 38.2 29.15Q38.75 29.05 39.325 29.025Q39.9 29 40.5 29Q43.85 29 45.925 30.2Q48 31.4 48 33.35V36ZM7.5 27.5Q6.05 27.5 5.025 26.475Q4 25.45 4 24Q4 22.55 5.025 21.525Q6.05 20.5 7.5 20.5Q8.95 20.5 9.975 21.525Q11 22.55 11 24Q11 25.45 9.975 26.475Q8.95 27.5 7.5 27.5ZM40.5 27.5Q39.05 27.5 38.025 26.475Q37 25.45 37 24Q37 22.55 38.025 21.525Q39.05 20.5 40.5 20.5Q41.95 20.5 42.975 21.525Q44 22.55 44 24Q44 25.45 42.975 26.475Q41.95 27.5 40.5 27.5ZM24 24Q21.5 24 19.75 22.25Q18 20.5 18 18Q18 15.5 19.75 13.75Q21.5 12 24 12Q26.5 12 28.25 13.75Q30 15.5 30 18Q30 20.5 28.25 22.25Q26.5 24 24 24Z"
     id="path7822"
     style="fill:#546e83;fill-opacity:1" />
</svg>
