<?xml version="1.0" encoding="UTF-8" standalone="no"?>
<svg
   height="48"
   width="48"
   version="1.1"
   id="svg13440"
   sodipodi:docname="photo_camera_FILL1_wght400_GRAD0_opsz48-blue.svg"
   inkscape:version="1.2 (dc2aedaf03, 2022-05-15)"
   xmlns:inkscape="http://www.inkscape.org/namespaces/inkscape"
   xmlns:sodipodi="http://sodipodi.sourceforge.net/DTD/sodipodi-0.dtd"
   xmlns="http://www.w3.org/2000/svg"
   xmlns:svg="http://www.w3.org/2000/svg">
  <defs
     id="defs13444" />
  <sodipodi:namedview
     id="namedview13442"
     pagecolor="#505050"
     bordercolor="#eeeeee"
     borderopacity="1"
     inkscape:showpageshadow="0"
     inkscape:pageopacity="0"
     inkscape:pagecheckerboard="0"
     inkscape:deskcolor="#505050"
     showgrid="false"
     inkscape:zoom="16.833333"
     inkscape:cx="23.970297"
     inkscape:cy="24"
     inkscape:window-width="1920"
     inkscape:window-height="1017"
     inkscape:window-x="-8"
     inkscape:window-y="-8"
     inkscape:window-maximized="1"
     inkscape:current-layer="svg13440" />
  <path
     d="M24 34.7Q27.6 34.7 30.05 32.25Q32.5 29.8 32.5 26.2Q32.5 22.55 30.05 20.125Q27.6 17.7 24 17.7Q20.35 17.7 17.925 20.125Q15.5 22.55 15.5 26.2Q15.5 29.8 17.925 32.25Q20.35 34.7 24 34.7ZM7 42Q5.8 42 4.9 41.1Q4 40.2 4 39V13.35Q4 12.2 4.9 11.275Q5.8 10.35 7 10.35H14.35L18 6H30L33.65 10.35H41Q42.15 10.35 43.075 11.275Q44 12.2 44 13.35V39Q44 40.2 43.075 41.1Q42.15 42 41 42Z"
     id="path13438"
     style="fill:#8ab7ff;fill-opacity:1" />
</svg>
